<svg viewBox="0 0 36 35" xmlns="http://www.w3.org/2000/svg" xmlns:xlink="http://www.w3.org/1999/xlink"><style>:root&gt;svg{display:none}:root&gt;svg:target{display:block}</style><svg fill="none" viewBox="0 0 35 35" id="gray-flilter-btn" xmlns="http://www.w3.org/2000/svg"><path d="M32.4 28h-7.8c-1.436 0-2.6.627-2.6 1.4v4.2c0 .773 1.164 1.4 2.6 1.4h7.8c1.436 0 2.6-.627 2.6-1.4v-4.2c0-.773-1.164-1.4-2.6-1.4zm-22 0H2.6c-1.436 0-2.6.627-2.6 1.4v4.2c0 .773 1.164 1.4 2.6 1.4h7.8c1.436 0 2.6-.627 2.6-1.4v-4.2c0-.773-1.164-1.4-2.6-1.4zm22-14h-7.8c-1.436 0-2.6.627-2.6 1.4v4.2c0 .773 1.164 1.4 2.6 1.4h7.8c1.436 0 2.6-.627 2.6-1.4v-4.2c0-.773-1.164-1.4-2.6-1.4zm-22 0H2.6c-1.436 0-2.6.627-2.6 1.4v4.2c0 .773 1.164 1.4 2.6 1.4h7.8c1.436 0 2.6-.627 2.6-1.4v-4.2c0-.773-1.164-1.4-2.6-1.4zm22-14h-7.8C23.164 0 22 .627 22 1.4v4.2c0 .773 1.164 1.4 2.6 1.4h7.8c1.436 0 2.6-.627 2.6-1.4V1.4C35 .627 33.836 0 32.4 0zm-22 0H2.6C1.164 0 0 .627 0 1.4v4.2C0 6.373 1.164 7 2.6 7h7.8c1.436 0 2.6-.627 2.6-1.4V1.4C13 .627 11.836 0 10.4 0z" fill="#C1C1C1"/></svg><svg fill="none" viewBox="0 0 36 34" id="green-flilter-btn" xmlns="http://www.w3.org/2000/svg"><path d="M6.044 26.445H1.511A1.51 1.51 0 000 27.955v4.534C0 33.324.677 34 1.511 34h4.533c.835 0 1.512-.676 1.512-1.511v-4.533c0-.835-.677-1.511-1.512-1.511zm14.167 0h-4.533a1.51 1.51 0 00-1.511 1.51v4.534A1.51 1.51 0 0015.677 34h4.534a1.51 1.51 0 001.511-1.511v-4.533a1.51 1.51 0 00-1.51-1.511zm14.167 0h-4.534a1.51 1.51 0 00-1.51 1.51v4.534A1.51 1.51 0 0029.844 34h4.534a1.51 1.51 0 001.51-1.511v-4.533a1.51 1.51 0 00-1.51-1.511zM6.044 13.222H1.511C.677 13.222 0 13.9 0 14.733v4.534c0 .834.677 1.51 1.511 1.51h4.533c.835 0 1.512-.676 1.512-1.51v-4.534c0-.834-.677-1.51-1.512-1.51zm14.167 0h-4.533c-.835 0-1.511.677-1.511 1.511v4.534c0 .834.676 1.51 1.51 1.51h4.534a1.51 1.51 0 001.511-1.51v-4.534a1.51 1.51 0 00-1.51-1.51zm14.167 0h-4.534a1.51 1.51 0 00-1.51 1.511v4.534c0 .834.676 1.51 1.51 1.51h4.534a1.51 1.51 0 001.51-1.51v-4.534a1.51 1.51 0 00-1.51-1.51zM6.044 0H1.511C.677 0 0 .677 0 1.511v4.533c0 .835.677 1.512 1.511 1.512h4.533c.835 0 1.512-.677 1.512-1.512V1.511C7.556.677 6.879 0 6.044 0zm14.167 0h-4.533c-.835 0-1.511.677-1.511 1.511v4.533c0 .835.676 1.512 1.51 1.512h4.534c.835 0 1.511-.677 1.511-1.512V1.511A1.51 1.51 0 0020.212 0zm14.167 0h-4.534a1.51 1.51 0 00-1.51 1.511v4.533c0 .835.676 1.512 1.51 1.512h4.534c.834 0 1.51-.677 1.51-1.512V1.511A1.51 1.51 0 0034.378 0z" fill="#63A60E"/></svg></svg>