 <svg class="sprite-black" display="none" xmlns="http://www.w3.org/2000/svg">
        <symbol id="facebook" viewBox="0 0 32 32">
          <g clip-path="url(#clip0)">
            <path d="M21.3293 5.31333H24.2506V0.225326C23.7466 0.155992 22.0133 -7.62939e-06 19.9946  -7.62939e-06C15.7826 -7.62939e-06 12.8973 2.64933 12.8973       7.51866V12H8.24927V17.688H12.8973V32H18.5959V17.6893H23.0559L23.7639        12.0013H18.5946V8.08266C18.5959 6.43866 19.0386 5.31333 21.3293 5.31333Z" fill="#31352B"/>
          </g>
        </symbol>

        <symbol id="youtube" viewBox="0 0 32 32">
          <g clip-path="url(#clip0)">
            <path d="M31.2919 7.90543L31.3319 8.16677C30.9452 6.79477 29.9012 5.7361 28.5746 5.35077L28.5466 5.3441C26.0519 4.66677 16.0132 4.66677 16.0132 4.66677C16.0132 4.66677 5.9999 4.65343 3.4799 5.3441C2.1279 5.7361 1.08257 6.79477 0.702571 8.13877L0.695904 8.16677C-0.236096 13.0348 -0.242763 18.8841 0.737237 24.0961L0.695904 23.8321C1.08257 25.2041 2.12657 26.2628 3.45324 26.6481L3.48124 26.6548C5.97324 27.3334 16.0146 27.3334 16.0146 27.3334C16.0146 27.3334 26.0266 27.3334 28.5479 26.6548C29.9012 26.2628 30.9466 25.2041 31.3266 23.8601L31.3332 23.8321C31.7572 21.5681 31.9999 18.9628 31.9999 16.3014C31.9999 16.2041 31.9999 16.1054 31.9986 16.0068C31.9999 15.9161 31.9999 15.8081 31.9999 15.7001C31.9999 13.0374 31.7572 10.4321 31.2919 7.90543ZM12.8106 20.8681V11.1441L21.1652 16.0134L12.8106 20.8681Z" fill="#31352B"/>
        </g>
        </symbol>

        <symbol id="telegram" viewBox="0 0 32 32">
          <g clip-path="url(#clip0)">
            <path d="M12.556 20.2414L12.0267 27.6867C12.784 27.6867 13.112 27.3614 13.5053 26.9707L17.056 23.5774L24.4133 28.9654C25.7626 29.7174 26.7133 29.3214 27.0773 27.724L31.9066 5.09471L31.908 5.09338C32.336 3.09871 31.1866 2.31871 29.872 2.80804L1.48533 13.676C-0.452007 14.428 -0.422674 15.508 1.15599 15.9974L8.41332 18.2547L25.2706 7.70671C26.064 7.18138 26.7853 7.47204 26.192 7.99738L12.556 20.2414Z" fill="#31352B"/>
          </g>
        </symbol>

        <symbol id="instagram" viewBox="0 0 32 32">
          <g clip-path="url(#clip0)">
            <path d="M16.0053 7.78404C11.468 7.78404 7.79468 11.4614 7.79468 15.9947C7.79468 20.532 11.472 24.2054 16.0053 24.2054C20.5427 24.2054 24.216 20.528 24.216 15.9947C24.216 11.4574 20.5387 7.78404 16.0053 7.78404ZM16.0053 21.324C13.06 21.324 10.676 18.9387 10.676 15.9947C10.676 13.0507 13.0613 10.6654 16.0053 10.6654C18.9493 10.6654 21.3347 13.0507 21.3347 15.9947C21.336 18.9387 18.9507 21.324 16.0053 21.324Z" fill="#31352B"/>
            <path d="M22.5974 0.101233C19.6534 -0.0361006 12.3614 -0.029434 9.41473 0.101233C6.82539 0.222566 4.54139 0.847899 2.70006 2.68923C-0.377275 5.76657 0.0160589 9.91323 0.0160589 15.9946C0.0160589 22.2186 -0.330608 26.2692 2.70006 29.2999C5.78939 32.3879 9.99606 31.9839 16.0054 31.9839C22.1707 31.9839 24.2987 31.9879 26.4787 31.1439C29.4427 29.9932 31.6801 27.3439 31.8987 22.5852C32.0374 19.6399 32.0294 12.3492 31.8987 9.40257C31.6347 3.78523 28.6201 0.378566 22.5974 0.101233ZM27.2574 27.2639C25.2401 29.2812 22.4414 29.1012 15.9667 29.1012C9.30006 29.1012 6.62673 29.1999 4.67606 27.2439C2.42939 25.0079 2.83606 21.4172 2.83606 15.9732C2.83606 8.60657 2.08006 3.30123 9.47339 2.92257C11.1721 2.86257 11.6721 2.84257 15.9481 2.84257L16.0081 2.88257C23.1134 2.88257 28.6881 2.13857 29.0227 9.53057C29.0987 11.2172 29.1161 11.7239 29.1161 15.9932C29.1147 22.5826 29.2401 25.2719 27.2574 27.2639Z" fill="#31352B"/>
            <path d="M24.5412 9.37862C25.6009 9.37862 26.4599 8.5196 26.4599 7.45995C26.4599 6.4003 25.6009 5.54129 24.5412 5.54129C23.4816 5.54129 22.6226 6.4003 22.6226 7.45995C22.6226 8.5196 23.4816 9.37862 24.5412 9.37862Z" fill="#31352B"/>
          </g>
        </symbol>
      </svg>