<svg viewBox="0 0 44 39" xmlns="http://www.w3.org/2000/svg" xmlns:xlink="http://www.w3.org/1999/xlink"><style>:root&gt;svg{display:none}:root&gt;svg:target{display:block}</style><svg fill="none" viewBox="0 0 44 39" id="icon-heart" xmlns="http://www.w3.org/2000/svg"><path d="M40.79 3.819C38.62 1.356 35.609 0 32.313 0c-4.637 0-7.572 2.769-9.218 5.092A16.87 16.87 0 0022 6.868a16.859 16.859 0 00-1.095-1.776C19.259 2.769 16.324 0 11.687 0 8.392 0 5.38 1.356 3.21 3.819 1.14 6.168 0 9.314 0 12.677c0 3.661 1.43 7.067 4.498 10.716 2.743 3.263 6.69 6.625 11.259 10.519a525.809 525.809 0 015.338 4.592l.056.049a1.286 1.286 0 001.698 0l.056-.05c1.875-1.64 3.636-3.14 5.339-4.591 4.569-3.894 8.515-7.256 11.258-10.518C42.57 19.744 44 16.337 44 12.676c0-3.363-1.14-6.51-3.21-8.858zm-14.22 28.13A597.727 597.727 0 0022 35.873a594.948 594.948 0 00-4.572-3.922c-8.942-7.62-14.85-12.655-14.85-19.273 0-2.735.911-5.276 2.566-7.154 1.674-1.899 3.998-2.945 6.543-2.945 3.535 0 5.82 2.178 7.114 4.004a15.285 15.285 0 011.973 3.924 1.289 1.289 0 002.452 0c.206-.634.812-2.285 1.973-3.924 1.294-1.826 3.579-4.004 7.113-4.004 2.546 0 4.87 1.046 6.544 2.945 1.654 1.878 2.566 4.419 2.566 7.154 0 6.618-5.908 11.652-14.85 19.273z" fill="#C1C1C1"/></svg></svg>